<svg width="68" height="23" viewBox="0 0 68 23" fill="none" xmlns="http://www.w3.org/2000/svg">
<path d="M16.5747 8.71605H8.6916V11.0406H14.2839C14.0144 14.3083 11.2856 15.7232 8.6916 15.7232C5.39014 15.7232 2.52663 13.1292 2.52663 9.49089C2.56031 5.95361 5.28907 3.25854 8.72528 3.25854C11.3867 3.25854 12.9363 4.94296 12.9363 4.94296L14.5871 3.25854C14.5871 3.25854 12.4984 0.934044 8.65791 0.934044C3.73941 0.900355 0 5.01033 0 9.4572C0 13.803 3.53728 18.0477 8.75897 18.0477C13.3406 18.0477 16.7094 14.9147 16.7094 10.2657C16.7094 9.28876 16.5747 8.71605 16.5747 8.71605Z" fill="#4A4A4A"/>
<path d="M23.0093 7.03174C19.7752 7.03174 17.4507 9.55837 17.4507 12.4893C17.4507 15.4875 19.7078 18.0478 23.043 18.0478C26.0749 18.0478 28.5342 15.7233 28.5342 12.5566C28.5342 8.8846 25.6706 7.03174 23.0093 7.03174ZM23.043 9.18779C24.6263 9.18779 26.1423 10.468 26.1423 12.5229C26.1423 14.5442 24.66 15.8581 23.043 15.8581C21.2912 15.8581 19.9099 14.4432 19.9099 12.4893C19.8762 10.6027 21.2575 9.18779 23.043 9.18779Z" fill="#4A4A4A"/>
<path d="M35.0696 7.03174C31.8355 7.03174 29.511 9.55837 29.511 12.4893C29.511 15.4875 31.7681 18.0478 35.1033 18.0478C38.1352 18.0478 40.5945 15.7233 40.5945 12.5566C40.5945 8.8846 37.7309 7.03174 35.0696 7.03174ZM35.1033 9.18779C36.6866 9.18779 38.2026 10.468 38.2026 12.5229C38.2026 14.5442 36.7203 15.8581 35.1033 15.8581C33.3515 15.8581 31.9702 14.4432 31.9702 12.4893C31.9365 10.6027 33.3178 9.18779 35.1033 9.18779Z" fill="#4A4A4A"/>
<path d="M46.8941 7.03174C43.9295 7.03174 41.605 9.62574 41.605 12.5566C41.605 15.8581 44.3 18.0815 46.8604 18.0815C48.4437 18.0815 49.2522 17.4414 49.8923 16.734V17.812C49.8923 19.6986 48.7469 20.844 46.9951 20.844C45.3107 20.844 44.4685 19.5975 44.1653 18.89L42.0092 19.7659C42.7504 21.3493 44.2664 23 46.9614 23C49.8923 23 52.1494 21.1472 52.1494 17.2393V7.36862H49.8249V8.3119C49.1512 7.53706 48.1742 7.03174 46.8941 7.03174ZM47.0962 9.18779C48.5448 9.18779 50.0271 10.4343 50.0271 12.5566C50.0271 14.7127 48.5448 15.8918 47.0625 15.8918C45.4791 15.8918 43.9969 14.6116 43.9969 12.5566C44.0305 10.4343 45.5465 9.18779 47.0962 9.18779Z" fill="#4A4A4A"/>
<path d="M62.4583 6.99792C59.6621 6.99792 57.304 9.22136 57.304 12.4891C57.304 15.959 59.9316 18.014 62.7278 18.014C65.0523 18.014 66.5009 16.7339 67.3431 15.5885L65.4229 14.3083C64.9175 15.0831 64.109 15.8243 62.7278 15.8243C61.1781 15.8243 60.4707 14.9821 60.0327 14.1399L67.4105 11.0742L67.0399 10.1646C66.2987 8.48021 64.648 6.99792 62.4583 6.99792ZM62.5257 9.12029C63.5363 9.12029 64.2438 9.6593 64.5806 10.2994L59.6285 12.3544C59.4263 10.771 60.9423 9.12029 62.5257 9.12029Z" fill="#4A4A4A"/>
<path d="M53.7666 17.7108H56.1922V1.47302H53.7666V17.7108Z" fill="#4A4A4A"/>
</svg>
