<svg width="85" height="21" viewBox="0 0 85 21" fill="none" xmlns="http://www.w3.org/2000/svg">
<path d="M68.2935 5.84241C67.6161 5.08035 66.473 4.65698 64.9066 4.65698H60.2496C59.9109 4.65698 59.6568 4.86867 59.6145 5.20736L57.7094 17.1886C57.667 17.4426 57.8364 17.6543 58.0904 17.6543H60.5036C60.7153 17.6543 60.9269 17.485 60.9693 17.2733L61.5197 13.8863C61.562 13.59 61.8583 13.336 62.1547 13.336H63.6365C66.727 13.336 68.5052 11.8542 68.9709 8.89064C69.0979 7.5782 68.8862 6.56213 68.2935 5.84241ZM65.457 9.01765C65.2029 10.7111 63.9328 10.7111 62.6627 10.7111H61.943L62.4511 7.5782C62.4934 7.40886 62.6627 7.23951 62.8321 7.23951H63.1708C64.0175 7.23951 64.8219 7.23951 65.2029 7.70521C65.457 8.00157 65.5416 8.42494 65.457 9.01765Z" fill="#4A4A4A"/>
<path d="M78.8775 8.97525H76.6337C76.422 8.97525 76.295 9.10226 76.2527 9.31395L76.168 9.94899L75.9986 9.73731C75.5329 9.01759 74.4322 8.80591 73.3738 8.80591C70.9183 8.80591 68.8014 10.6687 68.3781 13.2936C68.1664 14.606 68.4627 15.8761 69.2248 16.7228C69.9022 17.5272 70.8759 17.8659 72.0613 17.8659C74.0512 17.8659 75.1519 16.5958 75.1519 16.5958L75.0672 17.2309C75.0249 17.4849 75.1942 17.6966 75.4483 17.6966H77.4804C77.8191 17.6966 78.0731 17.4426 78.1155 17.1462L79.3432 9.48329C79.3009 9.18694 79.0892 8.97525 78.8775 8.97525ZM75.7446 13.3359C75.5329 14.606 74.5169 15.4527 73.2044 15.4527C72.5694 15.4527 72.019 15.2411 71.7226 14.86C71.384 14.479 71.2569 13.9286 71.384 13.2936C71.5956 12.0235 72.6117 11.1344 73.8818 11.1344C74.5169 11.1344 75.0249 11.3461 75.3636 11.7271C75.7023 12.1505 75.8293 12.7009 75.7446 13.3359Z" fill="#4A4A4A"/>
<path d="M84.0426 4.65698H81.8835C81.6718 4.65698 81.5448 4.78399 81.5024 4.99568L79.5973 17.1886C79.555 17.4426 79.7243 17.6543 79.9783 17.6543H81.9258C82.2645 17.6543 82.5185 17.4426 82.5609 17.1039L84.466 5.12268C84.466 4.86867 84.2967 4.65698 84.0426 4.65698Z" fill="#4A4A4A"/>
<path d="M34.9748 5.84241C34.2974 5.08035 33.1119 4.65698 31.5878 4.65698H26.8885C26.5498 4.65698 26.2958 4.86867 26.2534 5.20736L24.3483 17.1886C24.3059 17.4426 24.4753 17.6543 24.7293 17.6543H26.9731C27.3118 17.6543 27.5659 17.4426 27.6082 17.1039L28.1162 13.8863C28.1586 13.59 28.4549 13.336 28.7513 13.336H30.2754C33.366 13.336 35.1441 11.8542 35.6098 8.89064C35.7791 7.5782 35.5675 6.56213 34.9748 5.84241ZM32.0959 9.01765C31.8418 10.7111 30.5718 10.7111 29.3017 10.7111H28.5819L29.09 7.5782C29.1323 7.40886 29.3017 7.23951 29.471 7.23951H29.852C30.6988 7.23951 31.5032 7.23951 31.8842 7.70521C32.1382 8.00157 32.2229 8.42494 32.0959 9.01765Z" fill="#4A4A4A"/>
<path d="M45.5162 8.97525H43.2724C43.0607 8.97525 42.9337 9.10226 42.8913 9.31395L42.8067 9.94899L42.6373 9.73731C42.1716 9.01759 41.0709 8.80591 40.0124 8.80591C37.5569 8.80591 35.4401 10.6687 35.0167 13.2936C34.8051 14.606 35.1014 15.8761 35.8635 16.7228C36.5408 17.5272 37.5146 17.8659 38.7 17.8659C40.6898 17.8659 41.7906 16.5958 41.7906 16.5958L41.7059 17.2309C41.6636 17.4849 41.8329 17.6966 42.0869 17.6966H44.1191C44.4578 17.6966 44.7118 17.4426 44.7541 17.1462L45.9396 9.39862C45.9396 9.18694 45.7702 8.97525 45.5162 8.97525ZM42.4256 13.3359C42.2139 14.606 41.1979 15.4527 39.8854 15.4527C39.2504 15.4527 38.7 15.2411 38.4037 14.86C38.065 14.479 37.938 13.9286 38.065 13.2936C38.2766 12.0235 39.2927 11.1344 40.5628 11.1344C41.1979 11.1344 41.7059 11.3461 42.0446 11.7271C42.3833 12.1505 42.5103 12.7009 42.4256 13.3359Z" fill="#4A4A4A"/>
<path d="M57.4552 8.97522H55.2114C54.9997 8.97522 54.788 9.10223 54.661 9.27158L51.5705 13.8439L50.258 9.44092C50.1734 9.1869 49.9193 8.97522 49.623 8.97522H47.4215C47.1675 8.97522 46.9558 9.22924 47.0404 9.48326L49.496 16.7651L47.1675 20.0674C46.9981 20.3214 47.1675 20.7024 47.5061 20.7024H49.75C49.9617 20.7024 50.1734 20.6178 50.3004 20.4061L57.7939 9.61027C57.9633 9.31391 57.7516 8.97522 57.4552 8.97522Z" fill="#4A4A4A"/>
<path d="M16.4532 6.13205L16.4532 6.13212L16.4581 6.13752C17.2253 6.98143 17.3661 8.19373 17.0747 9.77607C16.7244 11.6301 15.9383 12.8379 14.8841 13.5873C13.8243 14.3407 12.4633 14.6524 10.9276 14.6524H10.4196C9.88396 14.6524 9.43111 15.0281 9.36807 15.5406L9.32771 15.7424L9.32752 15.7424L9.32598 15.752L8.69264 19.721L8.65293 19.8798L8.65285 19.8798L8.65142 19.8862C8.58938 20.1654 8.34255 20.3678 8.09107 20.3678H4.74649C4.60973 20.3678 4.50655 20.2561 4.52822 20.1031C4.52824 20.103 4.52826 20.1029 4.52827 20.1028L4.78144 18.3728L4.90753 17.7003L4.90765 17.7003L4.90882 17.6928L5.75555 12.2738L5.75593 12.2738L5.7573 12.26C5.78591 11.974 6.05058 11.7231 6.39761 11.7231H8.26042H8.26166H8.2629H8.26415H8.26539H8.26663H8.26788H8.26913H8.27037H8.27162H8.27287H8.27412H8.27537H8.27662H8.27788H8.27913H8.28039H8.28164H8.2829H8.28416H8.28542H8.28667H8.28794H8.2892H8.29046H8.29172H8.29298H8.29425H8.29552H8.29678H8.29805H8.29932H8.30059H8.30186H8.30313H8.3044H8.30567H8.30694H8.30822H8.30949H8.31077H8.31204H8.31332H8.3146H8.31588H8.31716H8.31844H8.31972H8.321H8.32229H8.32357H8.32485H8.32614H8.32742H8.32871H8.33H8.33129H8.33258H8.33387H8.33516H8.33645H8.33774H8.33903H8.34033H8.34162H8.34292H8.34421H8.34551H8.3468H8.3481H8.3494H8.3507H8.352H8.3533H8.3546H8.3559H8.35721H8.35851H8.35981H8.36112H8.36242H8.36373H8.36504H8.36634H8.36765H8.36896H8.37027H8.37158H8.37289H8.3742H8.37551H8.37683H8.37814H8.37945H8.38077H8.38208H8.3834H8.38472H8.38603H8.38735H8.38867H8.38999H8.3913H8.39262H8.39395H8.39527H8.39659H8.39791H8.39923H8.40056H8.40188H8.4032H8.40453H8.40585H8.40718H8.40851H8.40983H8.41116H8.41249H8.41382H8.41515H8.41648H8.41781H8.41914H8.42047H8.4218H8.42313H8.42446H8.4258H8.42713H8.42846H8.4298H8.43113H8.43247H8.43381H8.43514H8.43648H8.43782H8.43915H8.44049H8.44183H8.44317H8.44451H8.44585H8.44719H8.44853H8.44987H8.45121H8.45256H8.4539H8.45524H8.45658H8.45793H8.45927H8.46062H8.46196H8.46331H8.46465H8.466H8.46735H8.46869H8.47004H8.47139H8.47273H8.47408H8.47543H8.47678H8.47813H8.47948H8.48083H8.48218H8.48353H8.48488H8.48623H8.48758H8.48893H8.49029H8.49164H8.49299H8.49434H8.4957H8.49705H8.49841H8.49976H8.50111H8.50247H8.50382H8.50518H8.50653H8.50789H8.50925H8.5106H8.51196H8.51332H8.51467H8.51603H8.51739H8.51874H8.5201H8.52146H8.52282H8.52418H8.52554H8.5269H8.52825H8.52961H8.53097H8.53233H8.53369H8.53505H8.53641H8.53777H8.53913H8.5405H8.54186H8.54322H8.54458H8.54594H8.5473H8.54866H8.55002H8.55139H8.55275H8.55411H8.55547H8.55684H8.5582H8.55956H8.56092H8.56229H8.56365H8.56501H8.56638H8.56774H8.5691H8.57047H8.57183H8.57319H8.57456H8.57592H8.57729H8.57865H8.58001H8.58138H8.58274H8.58411H8.58547H8.58683H8.5882H8.58956H8.59093H8.59229H8.59366H8.59502H8.59638H8.59775H8.59911H8.60048H8.60184H8.60321H8.60457H8.60593H8.6073H8.60866H8.61003H8.61139H8.61276H8.61412H8.61548H8.61685H8.61821H8.61958H8.62094H8.6223H8.62367H8.62503H8.62639H8.62776H8.62912H8.63049H8.63185H8.63321H8.63457H8.63594H8.6373H8.63866H8.64003H8.64139H8.64275H8.64411H8.64548H8.64684H8.6482H8.64956H8.65092H8.65229H8.65365H8.65501H8.65637H8.65773H8.65909H8.66045H8.66181H8.66317H8.66453H8.66589H8.66725H8.66861H8.66997H8.67133H8.67269H8.67405H8.67541H8.67676H8.67812H8.67948H8.68084H8.6822H8.68355H8.68491H8.68627H8.68762H8.68898H8.69034H8.69169H8.69305H8.6944H8.69576H8.69711H8.69847H8.69982H8.70117H8.70253H8.70388H8.70523H8.70659H8.70794H8.70929H8.71064H8.71199H8.71335H8.7147H8.71605H8.7174H8.71875H8.7201H8.72145H8.72279H8.72414H8.72549H8.72684H8.72819H8.72953H8.73088H8.73223H8.73357H8.73492H8.73626H8.73761H8.73895H8.7403H8.74164H8.74298H8.74433H8.74567H8.74701H8.74835H8.74969H8.75103H8.75238H8.75372H8.75505H8.75639H8.75773H8.75907H8.76041H8.76175H8.76308H8.76442H8.76576H8.76709H8.76843H8.76976H8.77109H8.77243H8.77376H8.77509H8.77643H8.77776H8.77909H8.78042H8.78175H8.78308H8.78441H8.78574H8.78706H8.78839H8.78972H8.79105H8.79237H8.7937H8.79502H8.79635H8.79767H8.79899H8.80032H8.80164H8.80296H8.80428H8.8056H8.80692H8.80824H8.80956H8.81088H8.81219H8.81351H8.81483H8.81614H8.81746H8.81877H8.82009H8.8214H8.82271H8.82402H8.82533H8.82664H8.82795H8.82926H8.83057H8.83188H8.83319H8.8345H8.8358H8.83711H8.83841H8.83972H8.84102H8.84232H8.84362H8.84492H8.84623H8.84753H8.84882H8.85012H8.85142H8.85272H8.85401H8.85531H8.85661H8.8579H8.85919H8.86049H8.86178H8.86307H8.86436H8.86565H8.86694H8.86823H8.86951H8.8708H8.87209H8.87337H8.87466H8.87594H8.87722H8.8785H8.87979H8.88107H8.88235H8.88363H8.8849H8.88618H8.88746H8.88873H8.89001H8.89128H8.89255H8.89383H8.8951H8.89637H8.89764H8.89891H8.90018H8.90144H8.90271H8.90398H8.90524H8.9065H8.90777H8.90903H8.91029H8.91155H8.91281H8.91407H8.91533H8.91658H8.91784H8.91909H8.92035H8.9216H8.92285H8.9241H8.92535H8.9266H8.92785H8.9291H8.93035H8.93159H8.93284H8.93408H8.93532H8.93656H8.93781H8.94543C9.1499 11.7231 9.33785 11.7231 9.56906 11.678C11.0807 11.5038 12.4405 11.025 13.523 10.1138C14.6049 9.20296 15.3891 7.87748 15.7814 6.04699C15.8091 5.97938 15.8217 5.90988 15.8299 5.86478L15.8306 5.86061L15.8326 5.84987C15.8431 5.7916 15.8506 5.75029 15.8642 5.70972C15.8657 5.70521 15.8672 5.70063 15.8687 5.69599C15.8742 5.67974 15.8799 5.66268 15.8857 5.64488C16.1092 5.7906 16.2916 5.94342 16.4532 6.13205Z" fill="#4A4A4A" stroke="#ECF1F4" stroke-width="0.5"/>
<path d="M5.46603 12.2776L5.50837 12.0659L6.56678 5.29207C6.60912 5.03805 6.77846 4.78403 7.03248 4.69936C7.11716 4.65702 7.24417 4.61468 7.37118 4.61468H12.4092C13.0019 4.61468 13.5523 4.65702 14.0603 4.74169C14.1874 4.78403 14.3567 4.78403 14.4837 4.82637C14.6107 4.8687 14.7377 4.91104 14.8647 4.91104C14.9071 4.91104 14.9494 4.95338 14.9918 4.95338H15.0341C15.0341 4.95338 15.0341 4.95338 15.0764 4.95338C15.3304 5.03805 15.5421 5.12272 15.7538 5.24973C16.0078 3.64094 15.7538 2.54019 14.8647 1.56645C13.891 0.465702 12.1975 0 9.99604 0H3.56089C3.09518 0 2.71416 0.338692 2.67182 0.762058L0.00461632 17.6967C-0.0377202 18.0354 0.216299 18.3317 0.554991 18.3317H4.49229L4.6193 17.6543L5.46603 12.2776Z" fill="#4A4A4A"/>
<path d="M15.7538 5.24967C15.5422 5.12266 15.3305 5.03799 15.0765 4.95332C15.0765 4.95332 15.0765 4.95332 15.0341 4.95332H14.9918C14.9495 4.95332 14.9071 4.91098 14.8648 4.91098C14.7378 4.86864 14.6108 4.82631 14.4837 4.82631C14.3567 4.78397 14.1874 4.78397 14.0604 4.74163C13.5523 4.65696 13.002 4.61462 12.4093 4.61462H7.37121C7.2442 4.61462 7.11719 4.65696 7.03252 4.6993C6.82083 4.82631 6.60915 5.03799 6.56681 5.29201L5.5084 12.0659L5.46606 12.2775C5.55074 11.8118 5.93177 11.5155 6.35513 11.5155H8.26028C8.47196 11.5155 8.72598 11.5155 8.93766 11.5155C9.14934 11.5155 9.36103 11.4731 9.53037 11.4731C12.4939 11.0921 14.7801 9.568 15.5845 6.01173C15.6268 5.88472 15.6268 5.80005 15.6692 5.67304C15.7115 5.50369 15.7115 5.37668 15.7538 5.24967C15.7538 5.29201 15.7538 5.29201 15.7538 5.24967Z" fill="#4A4A4A"/>
</svg>
