<svg width="82" height="25" viewBox="0 0 82 25" fill="none" xmlns="http://www.w3.org/2000/svg">
<path d="M12.1988 0C5.47123 0 0 5.4307 0 12.1583C0 18.8859 5.47123 24.3571 12.1988 24.3571C18.9264 24.3571 24.3976 18.8859 24.3976 12.1583C24.3571 5.4307 18.9264 0 12.1988 0ZM17.7511 17.5485C17.5485 17.9132 17.0621 18.0348 16.6974 17.7916C13.8199 16.0489 10.2535 15.6437 5.99809 16.6163C5.59281 16.6974 5.18753 16.4542 5.10648 16.0489C5.02542 15.6437 5.26859 15.2384 5.67387 15.1573C10.3345 14.1036 14.3062 14.5494 17.5079 16.5353C17.8727 16.7379 17.9943 17.1837 17.7511 17.5485ZM19.2506 14.2252C18.9669 14.671 18.3995 14.8331 17.9537 14.5494C14.671 12.523 9.6861 11.9556 5.83598 13.1309C5.34965 13.2931 4.82279 13.0094 4.66068 12.4825C4.49857 11.9962 4.78226 11.4693 5.30912 11.3072C9.72663 9.96979 15.2384 10.6182 19.0075 12.9283C19.3722 13.212 19.5343 13.7794 19.2506 14.2252ZM19.3722 10.7803C15.441 8.42974 8.9566 8.22711 5.22806 9.36188C4.62015 9.56452 3.97171 9.19977 3.8096 8.59185C3.64749 8.02447 3.97171 7.37603 4.57962 7.21392C8.87555 5.91703 16.0489 6.1602 20.5475 8.83502C21.0744 9.15924 21.277 9.84821 20.9528 10.4156C20.6286 10.9425 19.9396 11.1046 19.3722 10.7803ZM33.1516 11.2261C31.0442 10.7398 30.6794 10.3751 30.6794 9.64557C30.6794 8.9566 31.3278 8.47027 32.3005 8.47027C33.2326 8.47027 34.2053 8.83502 35.178 9.56452C35.2185 9.60504 35.259 9.60504 35.2996 9.60504C35.3401 9.60504 35.3806 9.56452 35.3806 9.56452L36.3938 8.10552C36.4343 8.065 36.4343 7.98394 36.3533 7.90288C35.178 6.97075 33.8406 6.48442 32.3005 6.48442C30.031 6.48442 28.4504 7.86236 28.4504 9.80768C28.4504 11.9151 29.8283 12.6446 32.1789 13.212C34.2053 13.6578 34.5295 14.0631 34.5295 14.7521C34.5295 15.5221 33.8406 16.0084 32.7463 16.0084C31.5305 16.0084 30.5173 15.6031 29.3825 14.6305C29.342 14.5899 29.3015 14.5899 29.3015 14.5899C29.2609 14.5899 29.2204 14.6305 29.2204 14.6305L28.0856 16.0084C28.0451 16.0489 28.0451 16.1705 28.0856 16.211C29.3825 17.3863 31.0036 17.9943 32.7058 17.9943C35.1374 17.9943 36.718 16.6568 36.718 14.5899C36.7585 12.8473 35.7048 11.8746 33.1516 11.2261ZM42.2703 9.15924C41.2166 9.15924 40.325 9.56452 39.636 10.4156V9.44293C39.636 9.36188 39.555 9.32135 39.5144 9.32135H37.6502C37.5691 9.32135 37.5286 9.40241 37.5286 9.44293V20.1828C37.5286 20.2638 37.6096 20.3043 37.6502 20.3043H39.5144C39.5955 20.3043 39.636 20.2233 39.636 20.1828V16.819C40.3655 17.6295 41.2166 18.0348 42.2703 18.0348C44.2562 18.0348 46.242 16.5353 46.242 13.6173C46.242 10.6993 44.2562 9.15924 42.2703 9.15924ZM44.0535 13.5768C44.0535 15.0357 43.1619 16.0895 41.8245 16.0895C40.5276 16.0895 39.555 14.9952 39.555 13.5768C39.555 12.1583 40.5276 11.064 41.8245 11.064C43.1214 11.064 44.0535 12.1178 44.0535 13.5768ZM51.3485 9.15924C48.7952 9.15924 46.8094 11.1046 46.8094 13.6173C46.8094 16.0895 48.7952 18.0348 51.308 18.0348C53.8612 18.0348 55.8471 16.0895 55.8471 13.6173C55.8876 11.1046 53.9017 9.15924 51.3485 9.15924ZM51.3485 16.0895C50.0111 16.0895 48.9979 14.9952 48.9979 13.5768C48.9979 12.1178 49.9705 11.1046 51.3485 11.1046C52.7264 11.1046 53.7396 12.1988 53.7396 13.6173C53.6991 15.0763 52.7264 16.0895 51.3485 16.0895ZM61.2778 9.32135H59.2108V7.21392C59.2108 7.13286 59.1298 7.09233 59.0893 7.09233H57.225C57.1439 7.09233 57.1034 7.17339 57.1034 7.21392V9.32135H56.2118C56.1307 9.32135 56.0902 9.40241 56.0902 9.44293V11.064C56.0902 11.1451 56.1713 11.1856 56.2118 11.1856H57.1034V15.36C57.1034 17.0621 57.9545 17.9132 59.6161 17.9132C60.3051 17.9132 60.8319 17.7916 61.3588 17.4674C61.3993 17.4269 61.4399 17.3863 61.4399 17.3458V15.8058C61.4399 15.7652 61.3993 15.7247 61.3588 15.6842C61.3183 15.6437 61.2778 15.6437 61.2372 15.6842C60.8725 15.8463 60.5077 15.9679 60.143 15.9679C59.5351 15.9679 59.2514 15.6842 59.2514 15.0763V11.1856H61.3183C61.3993 11.1856 61.4399 11.1046 61.4399 11.064V9.44293C61.4399 9.40241 61.3588 9.32135 61.2778 9.32135ZM68.4917 9.36188V9.11871C68.4917 8.34869 68.7754 8.02447 69.4238 8.02447C69.8291 8.02447 70.1128 8.10552 70.4775 8.22711C70.5181 8.22711 70.5586 8.22711 70.5991 8.22711C70.6396 8.18658 70.6396 8.14605 70.6396 8.10552V6.52495C70.6396 6.48442 70.5991 6.40336 70.5586 6.40336C70.1938 6.28178 69.7075 6.1602 68.978 6.1602C67.2353 6.1602 66.3032 7.13286 66.3032 8.99713V9.40241H65.4116C65.3305 9.40241 65.29 9.48346 65.29 9.52399V11.1451C65.29 11.2261 65.371 11.2667 65.4116 11.2667H66.3032V17.7106C66.3032 17.7916 66.3842 17.8322 66.4248 17.8322H68.289C68.3701 17.8322 68.4106 17.7511 68.4106 17.7106V11.2261H70.1533L72.8281 17.67C72.5039 18.359 72.2202 18.4806 71.8149 18.4806C71.4907 18.4806 71.126 18.3995 70.7612 18.1969C70.7207 18.1969 70.6802 18.1564 70.6396 18.1969C70.5991 18.1969 70.5586 18.2374 70.5586 18.278L69.9101 19.6964C69.8696 19.7775 69.9101 19.8585 69.9507 19.8585C70.5991 20.2233 71.207 20.3854 71.977 20.3854C73.355 20.3854 74.125 19.7369 74.814 17.9943L78.0967 9.56452C78.0967 9.52399 78.0967 9.48346 78.0967 9.44293C78.0562 9.40241 78.0157 9.40241 77.9751 9.40241H76.1919C76.1514 9.40241 76.0703 9.44293 76.0703 9.48346L74.044 15.2384L71.8555 9.48346C71.8149 9.44293 71.7744 9.40241 71.7339 9.40241L68.4917 9.36188ZM64.3173 9.32135H62.4531C62.372 9.32135 62.3315 9.40241 62.3315 9.44293V17.67C62.3315 17.7511 62.4125 17.7916 62.4531 17.7916H64.3173C64.3984 17.7916 64.4389 17.7106 64.4389 17.67V9.48346C64.4794 9.40241 64.3984 9.32135 64.3173 9.32135ZM63.3852 5.59281C62.6557 5.59281 62.0478 6.20072 62.0478 6.93022C62.0478 7.65972 62.6557 8.26763 63.3852 8.26763C64.1147 8.26763 64.7226 7.65972 64.7226 6.93022C64.7226 6.20072 64.1552 5.59281 63.3852 5.59281ZM79.8799 11.9962C79.1504 11.9962 78.5425 11.3883 78.5425 10.6588C78.5425 9.92927 79.1099 9.32135 79.8799 9.32135C80.65 9.32135 81.2173 9.92927 81.2173 10.6588C81.2173 11.3883 80.65 11.9962 79.8799 11.9962ZM79.8799 9.44293C79.191 9.44293 78.7046 9.96979 78.7046 10.6588C78.7046 11.3072 79.2315 11.8341 79.8799 11.8341C80.5689 11.8341 81.0552 11.3072 81.0552 10.6182C81.0958 9.96979 80.5689 9.44293 79.8799 9.44293ZM80.2041 10.7803L80.5689 11.3072H80.2447L79.9205 10.8209H79.6368V11.3072H79.3531V9.92927H79.961C80.2852 9.92927 80.4878 10.0914 80.4878 10.3751C80.5284 10.5777 80.3663 10.7398 80.2041 10.7803ZM79.961 10.1724H79.5962V10.6182H79.961C80.1231 10.6182 80.2447 10.5372 80.2447 10.4156C80.2447 10.213 80.1231 10.1724 79.961 10.1724Z" fill="#4A4A4A"/>
</svg>
