<svg width="81" height="26" viewBox="0 0 81 26" fill="none" xmlns="http://www.w3.org/2000/svg">
<path d="M42.5734 6.31458C42.5734 7.2051 41.8448 7.97419 40.9138 7.97419C39.9828 7.97419 39.2542 7.24558 39.2542 6.31458C39.2542 5.38359 39.9423 4.65498 40.9138 4.65498C41.8853 4.73594 42.5734 5.46454 42.5734 6.31458ZM35.8136 9.63379C35.8136 9.7957 35.8136 10.0386 35.8136 10.0386C35.8136 10.0386 35.0445 9.02662 33.3849 9.02662C30.6324 9.02662 28.487 11.1315 28.487 14.0054C28.487 16.8794 30.5919 18.9842 33.3849 18.9842C35.085 18.9842 35.8136 17.9318 35.8136 17.9318V18.3771C35.8136 18.5794 35.9755 18.7414 36.1779 18.7414H38.2018V9.26948C38.2018 9.26948 36.3398 9.26948 36.1779 9.26948C35.9755 9.26948 35.8136 9.47187 35.8136 9.63379ZM35.8136 15.7055C35.4493 16.2722 34.6802 16.7579 33.7897 16.7579C32.1705 16.7579 30.9562 15.746 30.9562 14.0459C30.9562 12.3458 32.211 11.3339 33.7897 11.3339C34.6802 11.3339 35.4897 11.8196 35.8136 12.3863V15.7055ZM39.7399 9.26948H42.1686V18.7414H39.7399V9.26948ZM75.8869 9.02662C74.2273 9.02662 73.4582 10.0386 73.4582 10.0386V4.73594H71.0295V18.7818C71.0295 18.7818 72.8915 18.7818 73.0534 18.7818C73.2558 18.7818 73.4177 18.6199 73.4177 18.4175V17.9723C73.4177 17.9723 74.1868 19.0247 75.8464 19.0247C78.5989 19.0247 80.7442 16.9198 80.7442 14.0459C80.7847 11.1315 78.6394 9.02662 75.8869 9.02662ZM75.4821 16.7175C74.5511 16.7175 73.8225 16.2317 73.4582 15.665V12.2649C73.8225 11.7791 74.632 11.2124 75.4821 11.2124C77.1012 11.2124 78.3156 12.2244 78.3156 13.9245C78.3156 15.6245 77.1012 16.7175 75.4821 16.7175ZM69.7747 13.1554V18.8223H67.346V13.4387C67.346 11.8601 66.8603 11.2529 65.484 11.2529C64.7554 11.2529 63.9863 11.6172 63.5006 12.1839V18.7818H61.0719V9.26948H62.9744C63.1768 9.26948 63.3387 9.4314 63.3387 9.63379V10.0386C64.0268 9.30996 64.9983 9.02662 65.9293 9.02662C66.9817 9.02662 67.8722 9.30996 68.5603 9.91713C69.4509 10.6457 69.7747 11.5363 69.7747 13.1554ZM55.2026 9.02662C53.543 9.02662 52.7739 10.0386 52.7739 10.0386V4.73594H50.3452V18.7818C50.3452 18.7818 52.2072 18.7818 52.3691 18.7818C52.5715 18.7818 52.7334 18.6199 52.7334 18.4175V17.9723C52.7334 17.9723 53.5025 19.0247 55.1621 19.0247C57.9146 19.0247 60.0599 16.9198 60.0599 14.0459C60.1004 11.1315 57.9551 9.02662 55.2026 9.02662ZM54.7978 16.7175C53.8668 16.7175 53.1382 16.2317 52.7739 15.665V12.2649C53.1382 11.7791 53.9478 11.2124 54.7978 11.2124C56.4169 11.2124 57.6313 12.2244 57.6313 13.9245C57.6313 15.6245 56.4169 16.7175 54.7978 16.7175ZM48.2403 9.02662C48.9689 9.02662 49.3332 9.14805 49.3332 9.14805V11.3743C49.3332 11.3743 47.3093 10.6862 46.0545 12.1434V18.7818H43.6258V9.26948C43.6258 9.26948 45.4878 9.26948 45.6497 9.26948C45.8521 9.26948 46.014 9.4314 46.014 9.63379V10.0386C46.4998 9.51235 47.5117 9.02662 48.2403 9.02662ZM23.1034 17.9318C22.982 17.6485 22.8606 17.2841 22.7391 17.0413C22.5367 16.596 22.3344 16.1508 22.1724 15.746L22.132 15.7055C20.3914 11.941 18.5294 8.09562 16.546 4.29068L16.465 4.12877C16.2626 3.76446 16.0603 3.35968 15.8579 2.9549C15.615 2.50964 15.3721 2.02391 14.9673 1.57865C14.1578 0.566693 12.9839 0 11.7696 0C10.5148 0 9.38137 0.566693 8.53133 1.49769C8.12655 1.98343 7.8432 2.42869 7.60033 2.91442C7.39794 3.3192 7.19555 3.72399 6.99316 4.08829L6.9122 4.2502C4.96925 8.01466 3.06678 11.8601 1.32623 15.665L1.28575 15.7055C1.12384 16.1103 0.921445 16.5555 0.719055 17.0008C0.59762 17.2841 0.476186 17.5675 0.354752 17.8913C0.0309272 18.8223 -0.0905071 19.7128 0.0714053 20.6034C0.354752 22.5058 1.60957 24.0845 3.35013 24.7726C3.99778 25.0559 4.68591 25.1774 5.37404 25.1774C5.57643 25.1774 5.81929 25.1369 6.02169 25.1369C6.87173 25.0559 7.72177 24.7726 8.53133 24.2869C9.58376 23.7202 10.5552 22.8701 11.6481 21.6558C12.741 22.8701 13.753 23.6797 14.765 24.2869C15.615 24.7726 16.465 25.0559 17.2746 25.1369C17.477 25.1774 17.7199 25.1774 17.9222 25.1774C18.6104 25.1774 19.339 25.0559 19.9461 24.7726C21.7272 24.0845 22.9415 22.4653 23.2249 20.6034C23.5082 19.7128 23.4273 18.8628 23.1034 17.9318ZM11.7291 19.2271C10.3528 17.527 9.5028 15.9079 9.17898 14.5316C9.05754 13.9649 9.01707 13.4387 9.09802 12.9935C9.1385 12.5887 9.30041 12.2244 9.5028 11.941C9.98854 11.2529 10.7981 10.8481 11.7291 10.8481C12.6601 10.8481 13.5101 11.2529 13.9554 11.941C14.1578 12.2244 14.3197 12.5887 14.3602 12.9935C14.4411 13.4387 14.4007 13.9649 14.2792 14.5316C13.9554 15.8674 13.0649 17.4865 11.7291 19.2271ZM21.7677 20.401C21.6058 21.6963 20.7152 22.8296 19.4604 23.3559C18.8532 23.5987 18.2056 23.6797 17.5579 23.5987C16.9103 23.5178 16.3031 23.3154 15.6555 22.9511C14.765 22.4653 13.834 21.6558 12.7815 20.5224C14.4411 18.4985 15.4531 16.596 15.8174 14.9364C15.9793 14.1673 16.0198 13.4387 15.9388 12.7911C15.8579 12.1434 15.615 11.5767 15.2507 11.091C14.4816 9.95761 13.1458 9.30996 11.6886 9.30996C10.2314 9.30996 8.89563 9.99809 8.12655 11.091C7.76224 11.5767 7.55985 12.1839 7.43842 12.7911C7.35746 13.4387 7.35746 14.1673 7.55985 14.9364C7.92416 16.596 8.97659 18.4985 10.5957 20.5224C9.54328 21.6963 8.61228 22.4653 7.72177 22.9511C7.07412 23.3154 6.42647 23.5178 5.81929 23.5987C5.13117 23.6797 4.48352 23.5583 3.91682 23.3559C2.662 22.8701 1.81196 21.6963 1.60957 20.401C1.52862 19.7533 1.56909 19.1461 1.85244 18.4175C1.9334 18.1747 2.05483 17.9318 2.17627 17.608C2.33818 17.2032 2.54057 16.7579 2.74296 16.3532L2.78344 16.3127C4.524 12.5482 6.38599 8.70279 8.32894 4.97881L8.40989 4.81689C8.61228 4.45259 8.81467 4.04781 9.01707 3.64303C9.21945 3.23825 9.46232 2.87394 9.70519 2.55012C10.2314 1.94295 10.96 1.61912 11.7291 1.61912C12.4982 1.61912 13.2268 1.94295 13.753 2.55012C14.0363 2.87394 14.2387 3.23825 14.4411 3.64303C14.6435 4.00733 14.8459 4.41211 15.0483 4.81689L15.1293 4.97881C17.0317 8.74327 18.8937 12.5887 20.6343 16.3127V16.3532C20.8367 16.7579 20.9986 17.2032 21.201 17.608C21.3224 17.8913 21.4438 18.1747 21.5248 18.4175C21.8081 19.1057 21.8891 19.7533 21.7677 20.401Z" fill="#4A4A4A"/>
</svg>
